<?xml version="1.0" standalone="no"?><!DOCTYPE svg PUBLIC "-//W3C//DTD SVG 20010904//EN" "http://www.w3.org/TR/2001/REC-SVG-20010904/DTD/svg10.dtd"><svg xmlns="http://www.w3.org/2000/svg" version="1.0" width="48" height="48" viewBox="0 0 64.000000 64.000000" preserveAspectRatio="xMidYMid meet">

<g transform="translate(0.000000,64.000000) scale(0.100000,-0.100000)" fill="#000000" stroke="none">
<path d="M153 498 c-79 -79 -146 -153 -149 -165 -8 -29 12 -62 41 -69 25 -6 25 -8 25 -114 0 -106 1 -109 27 -130 22 -17 38 -20 92 -18 l66 3 5 95 5 95 55 0 55 0 5 -95 5 -95 54 -3 c119 -7 131 7 131 149 0 90 3 109 15 109 23 0 55 37 55 63 0 33 -286 317 -319 317 -18 0 -63 -38 -168 -142z m314 -30 c73 -73 133 -141 133 -150 0 -13 -8 -18 -30 -18 l-30 0 0 -111 c0 -138 -5 -149 -70 -149 l-50 0 0 77 c0 101 -18 123 -97 123 -44 0 -58 -5 -78 -25 -22 -21 -25 -33 -25 -100 l0 -76 -52 3 -53 3 -5 125 -5 125 -28 3 c-57 7 -44 29 94 168 74 74 140 134 149 134 8 0 74 -60 147 -132z"/>
</g>
</svg>